<svg xmlns="http://www.w3.org/2000/svg" viewBox="0 0 200 200">
  <defs>
    <radialGradient id="bg" cx="50%" cy="40%" r="70%">
      <stop offset="0%" stop-color="#eafaff"/>
      <stop offset="100%" stop-color="#cdeeff"/>
    </radialGradient>
  </defs>
  <rect width="200" height="200" rx="44" fill="url(#bg)"/>
  <!-- alas -->
  <g>
    <ellipse cx="64" cy="80" rx="44" ry="19" fill="#bdeaff" stroke="#7fd4ff" stroke-width="3" opacity=".95" transform="rotate(-18 64 80)"/>
    <ellipse cx="136" cy="80" rx="44" ry="19" fill="#bdeaff" stroke="#7fd4ff" stroke-width="3" opacity=".95" transform="rotate(18 136 80)"/>
    <ellipse cx="68" cy="106" rx="38" ry="15" fill="#d6f7e0" stroke="#8fe3ab" stroke-width="3" opacity=".95" transform="rotate(-10 68 106)"/>
    <ellipse cx="132" cy="106" rx="38" ry="15" fill="#d6f7e0" stroke="#8fe3ab" stroke-width="3" opacity=".95" transform="rotate(10 132 106)"/>
  </g>
  <!-- cuerpo/colita -->
  <rect x="91" y="94" width="18" height="82" rx="9" fill="#5ec8e8" stroke="#2196f3" stroke-width="3"/>
  <rect x="92" y="120" width="16" height="3" fill="#2196f3" opacity=".4"/>
  <rect x="92" y="138" width="16" height="3" fill="#2196f3" opacity=".4"/>
  <rect x="92" y="156" width="16" height="3" fill="#2196f3" opacity=".4"/>
  <!-- cabeza -->
  <circle cx="100" cy="76" r="33" fill="#7ad6f0" stroke="#2196f3" stroke-width="3"/>
  <!-- ojos -->
  <circle cx="87" cy="72" r="12.5" fill="#2a2a4a"/>
  <circle cx="113" cy="72" r="12.5" fill="#2a2a4a"/>
  <circle cx="91" cy="68" r="4.5" fill="#fff"/>
  <circle cx="117" cy="68" r="4.5" fill="#fff"/>
  <!-- mejillas -->
  <circle cx="76" cy="86" r="6" fill="#ff9ec4" opacity=".8"/>
  <circle cx="124" cy="86" r="6" fill="#ff9ec4" opacity=".8"/>
  <!-- boquita -->
  <path d="M93 88 Q100 96 107 88" fill="none" stroke="#2a2a4a" stroke-width="3" stroke-linecap="round"/>
  <!-- antenitas -->
  <path d="M90 46 Q86 36 80 34" fill="none" stroke="#2196f3" stroke-width="3" stroke-linecap="round"/>
  <path d="M110 46 Q114 36 120 34" fill="none" stroke="#2196f3" stroke-width="3" stroke-linecap="round"/>
  <circle cx="80" cy="33" r="3.5" fill="#ff9ec4"/>
  <circle cx="120" cy="33" r="3.5" fill="#ff9ec4"/>
</svg>
